ffmpeg started on 2026-01-20 at 13:41:13
Report written to "D:\Convert\FFMetrics\reports\ssim_report-6.txt"
Log level: 32
Command line:
ffmpeg -hide_banner -nostdin -r 24000/1001 -i "F:\\Convert\\files\\[DC] Make Heroine ga Oosugiru - 07_Telegram_HEVC(197).mkv" -r 24000/1001 -i "F:\\Convert\\files\\[DC] Make Heroine ga Oosugiru - 07_Telegram.mp4" -lavfi "[0:v]settb=AVTB,setpts=PTS-STARTPTS,format=pix_fmts=yuv420p10le,fps=24000/1001,scale=1920:1080:flags=lanczos:param0=3:out_range=limited:out_color_matrix=bt709:out_chroma_loc=left,setsar=1/1,setdar=(1920/1080)*(1/1),colorspace=format=yuv420p10:range=tv:primaries=bt709:trc=bt709:space=bt709:fast=0[main];[1:v]settb=AVTB,setpts=PTS-STARTPTS,format=pix_fmts=yuv420p,fps=24000/1001,scale=1920:1080:flags=lanczos:param0=3:out_range=limited:out_color_matrix=bt709:out_chroma_loc=left,setsar=1.000,setdar=1.778,colorspace=format=yuv420p:range=tv:primaries=bt709:trc=bt709:space=bt709:fast=0[ref];[main][ref]ssim=eof_action=endall:stats_file='D\\:/Convert/FFMetrics/logs/ssim_logfile-6.txt'" -f null -
Input #0, matroska,webm, from 'F:\Convert\files\[DC] Make Heroine ga Oosugiru - 07_Telegram_HEVC(197).mkv':
  Metadata:
    COMPATIBLE_BRANDS: isomiso2avc1mp41
    MAJOR_BRAND     : isom
    MINOR_VERSION   : 512
    ENCODER         : Lavf61.7.100
  Duration: 00:24:06.79, start: -0.021000, bitrate: 969 kb/s
  Stream #0:0: Video: hevc (Main 10), yuv420p10le(tv, bt709, progressive), 1920x1080 [SAR 1:1 DAR 16:9], 23.98 fps, 23.98 tbr, 1k tbn (default)
      Metadata:
        HANDLER_NAME    : VideoHandler
        VENDOR_ID       : [0][0][0][0]
        ENCODER         : Lavc61.19.100 libx265
        BPS             : 771958
        DURATION        : 00:24:06.569708333
        NUMBER_OF_FRAMES: 34683
        NUMBER_OF_BYTES : 139586341
        _STATISTICS_WRITING_APP: mkvpropedit v94.0 ('Initiate') 64-bit
        _STATISTICS_WRITING_DATE_UTC: 2026-01-19 16:32:33
        _STATISTICS_TAGS: BPS DURATION NUMBER_OF_FRAMES NUMBER_OF_BYTES
  Stream #0:1: Audio: aac (LC), 48000 Hz, stereo, fltp (default)
      Metadata:
        HANDLER_NAME    : SoundHandler
        VENDOR_ID       : [0][0][0][0]
        ENCODER         : Lavc61.19.100 aac
        BPS             : 193194
        DURATION        : 00:24:06.784000000
        NUMBER_OF_FRAMES: 67819
        NUMBER_OF_BYTES : 34938755
        _STATISTICS_WRITING_APP: mkvpropedit v94.0 ('Initiate') 64-bit
        _STATISTICS_WRITING_DATE_UTC: 2026-01-19 16:32:33
        _STATISTICS_TAGS: BPS DURATION NUMBER_OF_FRAMES NUMBER_OF_BYTES
Input #1, mov,mp4,m4a,3gp,3g2,mj2, from 'F:\Convert\files\[DC] Make Heroine ga Oosugiru - 07_Telegram.mp4':
  Metadata:
    major_brand     : isom
    minor_version   : 512
    compatible_brands: isomiso2avc1mp41
    encoder         : Lavf60.16.100
  Duration: 00:24:06.74, start: 0.000000, bitrate: 3764 kb/s
  Stream #1:0[0x1](und): Video: h264 (High) (avc1 / 0x31637661), yuv420p(tv, bt709, progressive), 1920x1080 [SAR 1:1 DAR 16:9], 3616 kb/s, 23.98 fps, 23.98 tbr, 24k tbn (default)
      Metadata:
        handler_name    : VideoHandler
        vendor_id       : [0][0][0][0]
        encoder         : Lavc60.31.102 h264_qsv
  Stream #1:1[0x2](und): Audio: aac (HE-AACv2) (mp4a / 0x6134706D), 48000 Hz, stereo, fltp, 144 kb/s (default)
      Metadata:
        handler_name    : SoundHandler
        vendor_id       : [0][0][0][0]
Stream mapping:
  Stream #0:0 (hevc) -> settb:default
  Stream #1:0 (h264) -> settb:default
  ssim:default -> Stream #0:0 (wrapped_avframe)
  Stream #0:1 -> #0:1 (aac (native) -> pcm_s16le (native))
Output #0, null, to 'pipe:':
  Metadata:
    COMPATIBLE_BRANDS: isomiso2avc1mp41
    MAJOR_BRAND     : isom
    MINOR_VERSION   : 512
    encoder         : Lavf61.7.100
  Stream #0:0: Video: wrapped_avframe, yuv420p10le(tv, bt709, progressive), 1920x1080 [SAR 1:1 DAR 16:9], q=2-31, 200 kb/s, 23.98 fps, 23.98 tbn
      Metadata:
        encoder         : Lavc61.19.100 wrapped_avframe
  Stream #0:1: Audio: pcm_s16le, 48000 Hz, stereo, s16, 1536 kb/s (default)
      Metadata:
        HANDLER_NAME    : SoundHandler
        VENDOR_ID       : [0][0][0][0]
        _STATISTICS_TAGS: BPS DURATION NUMBER_OF_FRAMES NUMBER_OF_BYTES
        BPS             : 193194
        DURATION        : 00:24:06.784000000
        NUMBER_OF_FRAMES: 67819
        NUMBER_OF_BYTES : 34938755
        _STATISTICS_WRITING_APP: mkvpropedit v94.0 ('Initiate') 64-bit
        _STATISTICS_WRITING_DATE_UTC: 2026-01-19 16:32:33
        encoder         : Lavc61.19.100 pcm_s16le
frame=  128 fps=0.0 q=-0.0 size=N/A time=00:00:05.33 bitrate=N/A speed=10.2x    frame=  304 fps=294 q=-0.0 size=N/A time=00:00:12.67 bitrate=N/A speed=12.3x    frame=  490 fps=317 q=-0.0 size=N/A time=00:00:20.43 bitrate=N/A speed=13.2x    frame=  675 fps=326 q=-0.0 size=N/A time=00:00:28.15 bitrate=N/A speed=13.6x    frame=  856 fps=332 q=-0.0 size=N/A time=00:00:35.70 bitrate=N/A speed=13.8x    frame=  993 fps=321 q=-0.0 size=N/A time=00:00:41.41 bitrate=N/A speed=13.4x    frame= 1154 fps=319 q=-0.0 size=N/A time=00:00:48.13 bitrate=N/A speed=13.3x    frame= 1310 fps=317 q=-0.0 size=N/A time=00:00:54.63 bitrate=N/A speed=13.2x    frame= 1474 fps=318 q=-0.0 size=N/A time=00:01:01.47 bitrate=N/A speed=13.3x    frame= 1610 fps=312 q=-0.0 size=N/A time=00:01:07.15 bitrate=N/A speed=  13x    frame= 1753 fps=309 q=-0.0 size=N/A time=00:01:13.11 bitrate=N/A speed=12.9x    frame= 1911 fps=309 q=-0.0 size=N/A time=00:01:19.70 bitrate=N/A speed=12.9x    frame= 2058 fps=307 q=-0.0 size=N/A time=00:01:25.83 bitrate=N/A speed=12.8x    frame= 2180 fps=302 q=-0.0 size=N/A time=00:01:30.92 bitrate=N/A speed=12.6x    frame= 2327 fps=301 q=-0.0 size=N/A time=00:01:37.05 bitrate=N/A speed=12.6x    frame= 2465 fps=299 q=-0.0 size=N/A time=00:01:42.81 bitrate=N/A speed=12.5x    frame= 2590 fps=295 q=-0.0 size=N/A time=00:01:48.02 bitrate=N/A speed=12.3x    frame= 2762 fps=297 q=-0.0 size=N/A time=00:01:55.19 bitrate=N/A speed=12.4x    frame= 2923 fps=298 q=-0.0 size=N/A time=00:02:01.91 bitrate=N/A speed=12.4x    frame= 3111 fps=301 q=-0.0 size=N/A time=00:02:09.75 bitrate=N/A speed=12.6x    frame= 3289 fps=304 q=-0.0 size=N/A time=00:02:17.17 bitrate=N/A speed=12.7x    frame= 3486 fps=307 q=-0.0 size=N/A time=00:02:25.39 bitrate=N/A speed=12.8x    frame= 3675 fps=310 q=-0.0 size=N/A time=00:02:33.27 bitrate=N/A speed=12.9x    frame= 3868 fps=313 q=-0.0 size=N/A time=00:02:41.32 bitrate=N/A speed=  13x    frame= 4058 fps=315 q=-0.0 size=N/A time=00:02:49.25 bitrate=N/A speed=13.1x    frame= 4246 fps=317 q=-0.0 size=N/A time=00:02:57.09 bitrate=N/A speed=13.2x    frame= 4434 fps=319 q=-0.0 size=N/A time=00:03:04.93 bitrate=N/A speed=13.3x    frame= 4626 fps=321 q=-0.0 size=N/A time=00:03:12.94 bitrate=N/A speed=13.4x    frame= 4823 fps=322 q=-0.0 size=N/A time=00:03:21.15 bitrate=N/A speed=13.4x    frame= 5006 fps=324 q=-0.0 size=N/A time=00:03:28.79 bitrate=N/A speed=13.5x    frame= 5199 fps=325 q=-0.0 size=N/A time=00:03:36.84 bitrate=N/A speed=13.6x    frame= 5392 fps=327 q=-0.0 size=N/A time=00:03:44.89 bitrate=N/A speed=13.6x    frame= 5576 fps=328 q=-0.0 size=N/A time=00:03:52.56 bitrate=N/A speed=13.7x    frame= 5754 fps=328 q=-0.0 size=N/A time=00:03:59.98 bitrate=N/A speed=13.7x    frame= 5945 fps=329 q=-0.0 size=N/A time=00:04:07.95 bitrate=N/A speed=13.7x    frame= 6139 fps=331 q=-0.0 size=N/A time=00:04:16.04 bitrate=N/A speed=13.8x    frame= 6326 fps=332 q=-0.0 size=N/A time=00:04:23.84 bitrate=N/A speed=13.8x    frame= 6514 fps=333 q=-0.0 size=N/A time=00:04:31.68 bitrate=N/A speed=13.9x    frame= 6711 fps=334 q=-0.0 size=N/A time=00:04:39.90 bitrate=N/A speed=13.9x    frame= 6897 fps=334 q=-0.0 size=N/A time=00:04:47.66 bitrate=N/A speed=13.9x    frame= 7084 fps=335 q=-0.0 size=N/A time=00:04:55.46 bitrate=N/A speed=  14x    frame= 7280 fps=336 q=-0.0 size=N/A time=00:05:03.63 bitrate=N/A speed=  14x    frame= 7465 fps=336 q=-0.0 size=N/A time=00:05:11.35 bitrate=N/A speed=  14x    frame= 7649 fps=337 q=-0.0 size=N/A time=00:05:19.02 bitrate=N/A speed=  14x    frame= 7837 fps=338 q=-0.0 size=N/A time=00:05:26.86 bitrate=N/A speed=14.1x    frame= 8024 fps=338 q=-0.0 size=N/A time=00:05:34.66 bitrate=N/A speed=14.1x    frame= 8209 fps=339 q=-0.0 size=N/A time=00:05:42.38 bitrate=N/A speed=14.1x    frame= 8398 fps=339 q=-0.0 size=N/A time=00:05:50.26 bitrate=N/A speed=14.1x    frame= 8581 fps=339 q=-0.0 size=N/A time=00:05:57.89 bitrate=N/A speed=14.2x    frame= 8763 fps=340 q=-0.0 size=N/A time=00:06:05.49 bitrate=N/A speed=14.2x    frame= 8956 fps=340 q=-0.0 size=N/A time=00:06:13.53 bitrate=N/A speed=14.2x    frame= 9143 fps=341 q=-0.0 size=N/A time=00:06:21.33 bitrate=N/A speed=14.2x    frame= 9330 fps=341 q=-0.0 size=N/A time=00:06:29.13 bitrate=N/A speed=14.2x    frame= 9515 fps=342 q=-0.0 size=N/A time=00:06:36.85 bitrate=N/A speed=14.2x    frame= 9711 fps=342 q=-0.0 size=N/A time=00:06:45.02 bitrate=N/A speed=14.3x    frame= 9901 fps=343 q=-0.0 size=N/A time=00:06:52.95 bitrate=N/A speed=14.3x    frame=10085 fps=343 q=-0.0 size=N/A time=00:07:00.62 bitrate=N/A speed=14.3x    frame=10271 fps=343 q=-0.0 size=N/A time=00:07:08.38 bitrate=N/A speed=14.3x    frame=10454 fps=343 q=-0.0 size=N/A time=00:07:16.01 bitrate=N/A speed=14.3x    frame=10633 fps=343 q=-0.0 size=N/A time=00:07:23.48 bitrate=N/A speed=14.3x    frame=10805 fps=343 q=-0.0 size=N/A time=00:07:30.65 bitrate=N/A speed=14.3x    frame=10987 fps=343 q=-0.0 size=N/A time=00:07:38.24 bitrate=N/A speed=14.3x    frame=11152 fps=343 q=-0.0 size=N/A time=00:07:45.13 bitrate=N/A speed=14.3x    frame=11332 fps=343 q=-0.0 size=N/A time=00:07:52.63 bitrate=N/A speed=14.3x    frame=11520 fps=344 q=-0.0 size=N/A time=00:08:00.48 bitrate=N/A speed=14.3x    frame=11706 fps=344 q=-0.0 size=N/A time=00:08:08.23 bitrate=N/A speed=14.3x    frame=11885 fps=344 q=-0.0 size=N/A time=00:08:15.70 bitrate=N/A speed=14.3x    frame=12074 fps=344 q=-0.0 size=N/A time=00:08:23.58 bitrate=N/A speed=14.4x    frame=12257 fps=344 q=-0.0 size=N/A time=00:08:31.21 bitrate=N/A speed=14.4x    frame=12442 fps=345 q=-0.0 size=N/A time=00:08:38.93 bitrate=N/A speed=14.4x    frame=12631 fps=345 q=-0.0 size=N/A time=00:08:46.81 bitrate=N/A speed=14.4x    frame=12812 fps=345 q=-0.0 size=N/A time=00:08:54.36 bitrate=N/A speed=14.4x    frame=12990 fps=345 q=-0.0 size=N/A time=00:09:01.79 bitrate=N/A speed=14.4x    frame=13173 fps=345 q=-0.0 size=N/A time=00:09:09.42 bitrate=N/A speed=14.4x    frame=13361 fps=345 q=-0.0 size=N/A time=00:09:17.26 bitrate=N/A speed=14.4x    frame=13542 fps=345 q=-0.0 size=N/A time=00:09:24.81 bitrate=N/A speed=14.4x    frame=13731 fps=346 q=-0.0 size=N/A time=00:09:32.69 bitrate=N/A speed=14.4x    frame=13917 fps=346 q=-0.0 size=N/A time=00:09:40.45 bitrate=N/A speed=14.4x    frame=14093 fps=346 q=-0.0 size=N/A time=00:09:47.79 bitrate=N/A speed=14.4x    frame=14264 fps=346 q=-0.0 size=N/A time=00:09:54.92 bitrate=N/A speed=14.4x    frame=14457 fps=346 q=-0.0 size=N/A time=00:10:02.97 bitrate=N/A speed=14.4x    frame=14635 fps=346 q=-0.0 size=N/A time=00:10:10.40 bitrate=N/A speed=14.4x    frame=14821 fps=346 q=-0.0 size=N/A time=00:10:18.15 bitrate=N/A speed=14.4x    frame=15009 fps=346 q=-0.0 size=N/A time=00:10:26.00 bitrate=N/A speed=14.4x    frame=15171 fps=346 q=-0.0 size=N/A time=00:10:32.75 bitrate=N/A speed=14.4x    frame=15353 fps=346 q=-0.0 size=N/A time=00:10:40.34 bitrate=N/A speed=14.4x    frame=15541 fps=346 q=-0.0 size=N/A time=00:10:48.18 bitrate=N/A speed=14.4x    frame=15733 fps=347 q=-0.0 size=N/A time=00:10:56.19 bitrate=N/A speed=14.5x    frame=15925 fps=347 q=-0.0 size=N/A time=00:11:04.20 bitrate=N/A speed=14.5x    frame=16106 fps=347 q=-0.0 size=N/A time=00:11:11.75 bitrate=N/A speed=14.5x    frame=16307 fps=347 q=-0.0 size=N/A time=00:11:20.13 bitrate=N/A speed=14.5x    frame=16489 fps=347 q=-0.0 size=N/A time=00:11:27.72 bitrate=N/A speed=14.5x    frame=16676 fps=347 q=-0.0 size=N/A time=00:11:35.52 bitrate=N/A speed=14.5x    frame=16859 fps=348 q=-0.0 size=N/A time=00:11:43.16 bitrate=N/A speed=14.5x    frame=17051 fps=348 q=-0.0 size=N/A time=00:11:51.16 bitrate=N/A speed=14.5x    frame=17241 fps=348 q=-0.0 size=N/A time=00:11:59.09 bitrate=N/A speed=14.5x    frame=17430 fps=348 q=-0.0 size=N/A time=00:12:06.97 bitrate=N/A speed=14.5x    frame=17615 fps=348 q=-0.0 size=N/A time=00:12:14.69 bitrate=N/A speed=14.5x    frame=17795 fps=348 q=-0.0 size=N/A time=00:12:22.19 bitrate=N/A speed=14.5x    frame=17987 fps=348 q=-0.0 size=N/A time=00:12:30.20 bitrate=N/A speed=14.5x    frame=18175 fps=349 q=-0.0 size=N/A time=00:12:38.04 bitrate=N/A speed=14.5x    frame=18350 fps=349 q=-0.0 size=N/A time=00:12:45.34 bitrate=N/A speed=14.5x    frame=18534 fps=349 q=-0.0 size=N/A time=00:12:53.02 bitrate=N/A speed=14.5x    frame=18720 fps=349 q=-0.0 size=N/A time=00:13:00.78 bitrate=N/A speed=14.5x    frame=18892 fps=349 q=-0.0 size=N/A time=00:13:07.95 bitrate=N/A speed=14.5x    frame=19080 fps=349 q=-0.0 size=N/A time=00:13:15.79 bitrate=N/A speed=14.5x    frame=19263 fps=349 q=-0.0 size=N/A time=00:13:23.42 bitrate=N/A speed=14.5x    frame=19443 fps=349 q=-0.0 size=N/A time=00:13:30.93 bitrate=N/A speed=14.5x    frame=19636 fps=349 q=-0.0 size=N/A time=00:13:38.98 bitrate=N/A speed=14.6x    frame=19822 fps=349 q=-0.0 size=N/A time=00:13:46.74 bitrate=N/A speed=14.6x    frame=20009 fps=349 q=-0.0 size=N/A time=00:13:54.54 bitrate=N/A speed=14.6x    frame=20203 fps=349 q=-0.0 size=N/A time=00:14:02.63 bitrate=N/A speed=14.6x    frame=20373 fps=349 q=-0.0 size=N/A time=00:14:09.72 bitrate=N/A speed=14.6x    frame=20543 fps=349 q=-0.0 size=N/A time=00:14:16.81 bitrate=N/A speed=14.6x    frame=20711 fps=349 q=-0.0 size=N/A time=00:14:23.82 bitrate=N/A speed=14.5x    frame=20888 fps=349 q=-0.0 size=N/A time=00:14:31.20 bitrate=N/A speed=14.5x    frame=21077 fps=349 q=-0.0 size=N/A time=00:14:39.08 bitrate=N/A speed=14.6x    frame=21267 fps=349 q=-0.0 size=N/A time=00:14:47.01 bitrate=N/A speed=14.6x    frame=21457 fps=349 q=-0.0 size=N/A time=00:14:54.93 bitrate=N/A speed=14.6x    frame=21634 fps=349 q=-0.0 size=N/A time=00:15:02.31 bitrate=N/A speed=14.6x    frame=21831 fps=349 q=-0.0 size=N/A time=00:15:10.53 bitrate=N/A speed=14.6x    frame=22017 fps=349 q=-0.0 size=N/A time=00:15:18.29 bitrate=N/A speed=14.6x    frame=22201 fps=350 q=-0.0 size=N/A time=00:15:25.96 bitrate=N/A speed=14.6x    frame=22386 fps=350 q=-0.0 size=N/A time=00:15:33.68 bitrate=N/A speed=14.6x    frame=22575 fps=350 q=-0.0 size=N/A time=00:15:41.56 bitrate=N/A speed=14.6x    frame=22754 fps=350 q=-0.0 size=N/A time=00:15:49.03 bitrate=N/A speed=14.6x    frame=22939 fps=350 q=-0.0 size=N/A time=00:15:56.74 bitrate=N/A speed=14.6x    frame=23128 fps=350 q=-0.0 size=N/A time=00:16:04.63 bitrate=N/A speed=14.6x    frame=23303 fps=350 q=-0.0 size=N/A time=00:16:11.92 bitrate=N/A speed=14.6x    frame=23494 fps=350 q=-0.0 size=N/A time=00:16:19.89 bitrate=N/A speed=14.6x    frame=23691 fps=350 q=-0.0 size=N/A time=00:16:28.11 bitrate=N/A speed=14.6x    frame=23879 fps=350 q=-0.0 size=N/A time=00:16:35.95 bitrate=N/A speed=14.6x    frame=24066 fps=350 q=-0.0 size=N/A time=00:16:43.75 bitrate=N/A speed=14.6x    frame=24256 fps=351 q=-0.0 size=N/A time=00:16:51.67 bitrate=N/A speed=14.6x    frame=24447 fps=351 q=-0.0 size=N/A time=00:16:59.64 bitrate=N/A speed=14.6x    frame=24642 fps=351 q=-0.0 size=N/A time=00:17:07.77 bitrate=N/A speed=14.6x    frame=24829 fps=351 q=-0.0 size=N/A time=00:17:15.57 bitrate=N/A speed=14.6x    frame=25026 fps=351 q=-0.0 size=N/A time=00:17:23.79 bitrate=N/A speed=14.6x    frame=25218 fps=351 q=-0.0 size=N/A time=00:17:31.80 bitrate=N/A speed=14.7x    frame=25408 fps=352 q=-0.0 size=N/A time=00:17:39.72 bitrate=N/A speed=14.7x    frame=25599 fps=352 q=-0.0 size=N/A time=00:17:47.69 bitrate=N/A speed=14.7x    frame=25788 fps=352 q=-0.0 size=N/A time=00:17:55.57 bitrate=N/A speed=14.7x    frame=25985 fps=352 q=-0.0 size=N/A time=00:18:03.79 bitrate=N/A speed=14.7x    frame=26172 fps=352 q=-0.0 size=N/A time=00:18:11.59 bitrate=N/A speed=14.7x    frame=26367 fps=352 q=-0.0 size=N/A time=00:18:19.72 bitrate=N/A speed=14.7x    frame=26561 fps=352 q=-0.0 size=N/A time=00:18:27.81 bitrate=N/A speed=14.7x    frame=26745 fps=352 q=-0.0 size=N/A time=00:18:35.48 bitrate=N/A speed=14.7x    frame=26932 fps=353 q=-0.0 size=N/A time=00:18:43.28 bitrate=N/A speed=14.7x    frame=27113 fps=352 q=-0.0 size=N/A time=00:18:50.83 bitrate=N/A speed=14.7x    frame=27291 fps=352 q=-0.0 size=N/A time=00:18:58.26 bitrate=N/A speed=14.7x    frame=27484 fps=353 q=-0.0 size=N/A time=00:19:06.31 bitrate=N/A speed=14.7x    frame=27667 fps=353 q=-0.0 size=N/A time=00:19:13.94 bitrate=N/A speed=14.7x    frame=27853 fps=353 q=-0.0 size=N/A time=00:19:21.70 bitrate=N/A speed=14.7x    frame=28040 fps=353 q=-0.0 size=N/A time=00:19:29.50 bitrate=N/A speed=14.7x    frame=28224 fps=353 q=-0.0 size=N/A time=00:19:37.17 bitrate=N/A speed=14.7x    frame=28419 fps=353 q=-0.0 size=N/A time=00:19:45.30 bitrate=N/A speed=14.7x    frame=28603 fps=353 q=-0.0 size=N/A time=00:19:52.98 bitrate=N/A speed=14.7x    frame=28792 fps=353 q=-0.0 size=N/A time=00:20:00.86 bitrate=N/A speed=14.7x    frame=28962 fps=353 q=-0.0 size=N/A time=00:20:07.95 bitrate=N/A speed=14.7x    frame=29139 fps=353 q=-0.0 size=N/A time=00:20:15.33 bitrate=N/A speed=14.7x    frame=29319 fps=353 q=-0.0 size=N/A time=00:20:22.84 bitrate=N/A speed=14.7x    frame=29492 fps=353 q=-0.0 size=N/A time=00:20:30.06 bitrate=N/A speed=14.7x    frame=29667 fps=353 q=-0.0 size=N/A time=00:20:37.36 bitrate=N/A speed=14.7x    frame=29839 fps=352 q=-0.0 size=N/A time=00:20:44.53 bitrate=N/A speed=14.7x    frame=30005 fps=352 q=-0.0 size=N/A time=00:20:51.45 bitrate=N/A speed=14.7x    frame=30185 fps=352 q=-0.0 size=N/A time=00:20:58.96 bitrate=N/A speed=14.7x    frame=30362 fps=352 q=-0.0 size=N/A time=00:21:06.34 bitrate=N/A speed=14.7x    frame=30564 fps=352 q=-0.0 size=N/A time=00:21:14.77 bitrate=N/A speed=14.7x    frame=30749 fps=352 q=-0.0 size=N/A time=00:21:22.48 bitrate=N/A speed=14.7x    frame=30942 fps=353 q=-0.0 size=N/A time=00:21:30.53 bitrate=N/A speed=14.7x    frame=31125 fps=353 q=-0.0 size=N/A time=00:21:38.17 bitrate=N/A speed=14.7x    frame=31325 fps=353 q=-0.0 size=N/A time=00:21:46.51 bitrate=N/A speed=14.7x    frame=31504 fps=353 q=-0.0 size=N/A time=00:21:53.97 bitrate=N/A speed=14.7x    frame=31690 fps=353 q=-0.0 size=N/A time=00:22:01.73 bitrate=N/A speed=14.7x    frame=31871 fps=353 q=-0.0 size=N/A time=00:22:09.28 bitrate=N/A speed=14.7x    frame=32054 fps=353 q=-0.0 size=N/A time=00:22:16.91 bitrate=N/A speed=14.7x    frame=32252 fps=353 q=-0.0 size=N/A time=00:22:25.17 bitrate=N/A speed=14.7x    frame=32441 fps=353 q=-0.0 size=N/A time=00:22:33.06 bitrate=N/A speed=14.7x    frame=32627 fps=353 q=-0.0 size=N/A time=00:22:40.81 bitrate=N/A speed=14.7x    frame=32778 fps=353 q=-0.0 size=N/A time=00:22:47.11 bitrate=N/A speed=14.7x    frame=32947 fps=353 q=-0.0 size=N/A time=00:22:54.16 bitrate=N/A speed=14.7x    frame=33127 fps=353 q=-0.0 size=N/A time=00:23:01.67 bitrate=N/A speed=14.7x    frame=33309 fps=353 q=-0.0 size=N/A time=00:23:09.26 bitrate=N/A speed=14.7x    frame=33477 fps=352 q=-0.0 size=N/A time=00:23:16.26 bitrate=N/A speed=14.7x    frame=33625 fps=352 q=-0.0 size=N/A time=00:23:22.44 bitrate=N/A speed=14.7x    frame=33760 fps=352 q=-0.0 size=N/A time=00:23:28.07 bitrate=N/A speed=14.7x    frame=33880 fps=351 q=-0.0 size=N/A time=00:23:33.07 bitrate=N/A speed=14.6x    frame=34041 fps=351 q=-0.0 size=N/A time=00:23:39.79 bitrate=N/A speed=14.6x    frame=34200 fps=351 q=-0.0 size=N/A time=00:23:46.42 bitrate=N/A speed=14.6x    frame=34338 fps=350 q=-0.0 size=N/A time=00:23:52.18 bitrate=N/A speed=14.6x    frame=34472 fps=350 q=-0.0 size=N/A time=00:23:57.76 bitrate=N/A speed=14.6x    frame=34655 fps=350 q=-0.0 size=N/A time=00:24:05.40 bitrate=N/A speed=14.6x    [Parsed_ssim_16 @ 000001952280f340] SSIM Y:0.994201 (22.366363) U:0.994003 (22.220659) V:0.993606 (21.942467) All:0.994069 (22.268565)
[out#0/null @ 000001951533fe80] video:14903KiB audio:271276KiB subtitle:0KiB other streams:0KiB global headers:0KiB muxing overhead: unknown
frame=34683 fps=350 q=-0.0 Lsize=N/A time=00:24:06.57 bitrate=N/A speed=14.6x    
